<?xml version="1.0" standalone="no"?>
<!DOCTYPE svg PUBLIC "-//W3C//DTD SVG 20010904//EN"
 "http://www.w3.org/TR/2001/REC-SVG-20010904/DTD/svg10.dtd">
<svg version="1.0" xmlns="http://www.w3.org/2000/svg"
 width="500.000000pt" height="500.000000pt" viewBox="0 0 500.000000 500.000000"
 preserveAspectRatio="xMidYMid meet">
<metadata>
Created by potrace 1.11, written by Peter Selinger 2001-2013
</metadata>
<g transform="translate(0.000000,500.000000) scale(0.100000,-0.100000)"
fill="#000000" stroke="none">
<path d="M3075 4008 c-11 -6 -23 -16 -27 -22 -4 -6 -8 -673 -8 -1481 0 -1615
-4 -1515 58 -1515 37 0 51 11 60 46 4 16 7 685 7 1486 -1 1339 -3 1459 -18
1475 -19 22 -45 26 -72 11z"/>
<path d="M2815 3570 c-17 -19 -18 -69 -18 -1063 0 -760 3 -1048 11 -1063 14
-26 55 -38 82 -24 11 6 23 24 27 40 5 17 8 496 7 1065 -1 1009 -1 1036 -20
1050 -27 21 -68 18 -89 -5z"/>
<path d="M3297 3450 c-12 -17 -14 -168 -13 -951 l1 -931 24 -19 c30 -25 47
-24 75 4 l23 23 -1 930 c-1 857 -2 932 -18 947 -23 24 -73 22 -91 -3z"/>
<path d="M1366 3394 c-9 -8 -17 -18 -17 -22 -6 -34 -3 -1722 2 -1739 12 -32
42 -45 76 -32 15 5 31 16 35 22 4 7 8 404 8 883 0 831 -1 872 -18 887 -23 21
-66 22 -86 1z"/>
<path d="M2580 3152 l-23 -19 -1 -611 c-1 -337 2 -625 7 -641 11 -45 62 -57
100 -24 16 15 17 59 17 645 0 615 0 628 -20 648 -25 25 -51 25 -80 2z"/>
<path d="M1124 3089 c-18 -20 -19 -47 -19 -588 0 -445 3 -572 13 -583 22 -27
63 -28 89 -2 l23 23 0 565 0 565 -22 21 c-28 26 -60 26 -84 -1z"/>
<path d="M1630 3043 c-40 -14 -40 -19 -40 -544 l0 -508 26 -20 c21 -16 30 -18
52 -10 15 6 30 16 34 22 4 7 8 242 8 524 l0 512 -22 15 c-23 17 -33 18 -58 9z"/>
<path d="M3558 3043 c-9 -2 -20 -14 -25 -26 -8 -23 -13 -989 -5 -1020 3 -10
16 -24 31 -31 31 -16 65 -6 80 23 16 29 15 995 0 1024 -19 36 -36 42 -81 30z"/>
<path d="M4030 2910 c-19 -19 -20 -33 -20 -408 0 -364 1 -390 18 -405 25 -23
65 -21 86 2 16 17 17 51 17 363 0 460 2 425 -21 448 -11 11 -29 20 -40 20 -11
0 -29 -9 -40 -20z"/>
<path d="M2333 2848 c-17 -18 -18 -46 -19 -337 -1 -359 1 -370 68 -371 53 0
56 16 56 345 1 165 -1 314 -4 332 -7 47 -69 66 -101 31z"/>
<path d="M885 2786 l-23 -23 1 -263 c0 -241 2 -265 19 -282 22 -22 61 -23 82
-2 9 8 17 18 17 22 1 4 2 124 3 267 2 257 2 260 -21 282 -28 29 -48 29 -78 -1z"/>
<path d="M1863 2801 c-29 -18 -33 -56 -33 -304 1 -279 4 -297 58 -297 35 0 49
10 59 40 5 14 8 139 8 278 -1 217 -4 255 -17 269 -17 17 -59 25 -75 14z"/>
<path d="M3788 2731 c-21 -18 -22 -24 -22 -224 0 -186 2 -208 19 -227 24 -27
70 -26 89 2 21 30 23 413 2 440 -19 25 -62 30 -88 9z"/>
<path d="M670 2682 c-46 -14 -50 -28 -50 -179 0 -130 2 -145 20 -163 27 -27
64 -25 87 4 16 20 19 41 18 163 0 144 -6 166 -43 175 -9 3 -24 3 -32 0z"/>
<path d="M2113 2682 c-33 -5 -43 -51 -43 -193 0 -116 2 -131 20 -149 32 -32
77 -25 97 15 15 30 11 288 -5 307 -15 18 -38 25 -69 20z"/>
<path d="M4300 2682 c-46 -15 -50 -28 -50 -179 0 -130 2 -145 20 -163 26 -26
62 -26 85 0 16 18 19 40 20 156 1 78 -3 144 -9 156 -12 23 -43 38 -66 30z"/>
</g>
</svg>
